<svg width="16" height="15" viewBox="0 0 16 15" fill="none" xmlns="http://www.w3.org/2000/svg">
<g filter="url(#filter0_ddd)">
<path d="M11.6044 13.1667L11.6006 13.1667C9.01121 13.1633 6.5288 12.1332 4.6978 10.3022C2.86688 8.47125 1.83676 5.98898 1.83331 3.39968C1.8334 2.71907 2.1038 2.06636 2.58507 1.58509C3.06642 1.10374 3.71926 0.833328 4.39998 0.833343L4.40379 0.833314C4.54323 0.832251 4.68244 0.844907 4.81941 0.871097L4.82973 0.873071L4.84012 0.874609C4.9713 0.89402 5.10026 0.926259 5.22514 0.970862L5.22513 0.970869L5.22777 0.971796C5.25515 0.981401 5.27954 0.997985 5.29854 1.01991C5.31754 1.04183 5.33049 1.06833 5.33611 1.0968L5.33754 1.10407L5.33919 1.1113L6.25236 5.11056C6.25237 5.11062 6.25239 5.11069 6.2524 5.11075C6.25851 5.13784 6.25775 5.16602 6.2502 5.19274C6.24263 5.21952 6.22847 5.24399 6.20902 5.26389L6.20891 5.26378L6.20025 5.2731C6.19441 5.27939 6.19055 5.28348 6.18816 5.286C6.18202 5.29021 6.16651 5.30037 6.13421 5.31909C6.03174 5.3785 5.83832 5.4801 5.42252 5.69645L5.00149 5.91552L5.19835 6.34738C5.90471 7.89698 7.14404 9.1414 8.69073 9.8541L9.12224 10.0529L9.34283 9.63213C9.56248 9.2131 9.66581 9.01778 9.72615 8.91424C9.74575 8.8806 9.75621 8.86478 9.76041 8.8587C9.76291 8.85632 9.76706 8.85241 9.77354 8.84639L9.77365 8.84651L9.78275 8.83762C9.80266 8.81816 9.82712 8.80401 9.8539 8.79644C9.88057 8.7889 9.9087 8.78813 9.93574 8.79421C9.93585 8.79423 9.93597 8.79426 9.93608 8.79428L13.9336 9.70706C13.9338 9.7071 13.934 9.70714 13.9342 9.70718C13.9615 9.71362 13.9868 9.72687 14.0077 9.7457C14.0286 9.76465 14.0445 9.78864 14.0536 9.81539L14.0536 9.8154L14.0555 9.82084C14.1018 9.95105 14.1368 10.085 14.16 10.2213C14.1821 10.3606 14.1933 10.5015 14.1933 10.6426C14.1821 11.3191 13.9042 11.9639 13.42 12.4367C12.935 12.9102 12.2822 13.1727 11.6044 13.1667ZM4.39998 1.16666L4.39807 1.16667C3.80695 1.16893 3.2407 1.40475 2.82271 1.82273C2.40473 2.24071 2.16891 2.80697 2.16665 3.39808H2.16664L2.16665 3.40037C2.16851 5.90157 3.16294 8.2998 4.93156 10.0684C6.70017 11.837 9.0984 12.8315 11.5996 12.8333L11.6019 12.8333C12.193 12.8311 12.7593 12.5952 13.1772 12.1773C13.5952 11.7593 13.831 11.193 13.8333 10.6019V10.6V10.38V9.98217L13.4457 9.89278L10.3523 9.17945L9.97724 9.09295L9.7977 9.43346L9.60436 9.80012L9.60435 9.80011L9.60254 9.80362C9.52569 9.95219 9.46389 10.0708 9.40315 10.1705C9.34196 10.2709 9.29735 10.3254 9.26603 10.3542C9.25732 10.3621 9.25129 10.3667 9.24765 10.3691C9.23689 10.3686 9.20786 10.3649 9.15424 10.3432L9.14477 10.3394L9.13514 10.3359C8.10032 9.96551 7.161 9.36924 6.38543 8.59043C5.60985 7.81162 5.01751 6.86982 4.65143 5.83346L4.64369 5.81156L4.63396 5.79047C4.62487 5.77077 4.61992 5.75654 4.61725 5.74707C4.62039 5.74321 4.62459 5.7384 4.63012 5.7326C4.66391 5.69717 4.72457 5.64929 4.82847 5.58592C4.92994 5.52403 5.04884 5.46131 5.19277 5.38599L5.55365 5.20883L5.90964 5.03407L5.82053 4.64764L5.10719 1.55431L5.0178 1.16666H4.61998L4.39998 1.16666ZM9.24334 10.3715C9.24332 10.3715 9.2439 10.3711 9.24505 10.3707C9.24391 10.3713 9.24336 10.3716 9.24334 10.3715ZM4.61427 5.73213C4.61431 5.73214 4.6144 5.73283 4.61441 5.73416L4.61427 5.73213Z" stroke="black"/>
<path d="M11.6044 13.1667L11.6006 13.1667C9.01121 13.1633 6.5288 12.1332 4.6978 10.3022C2.86688 8.47125 1.83676 5.98898 1.83331 3.39968C1.8334 2.71907 2.1038 2.06636 2.58507 1.58509C3.06642 1.10374 3.71926 0.833328 4.39998 0.833343L4.40379 0.833314C4.54323 0.832251 4.68244 0.844907 4.81941 0.871097L4.82973 0.873071L4.84012 0.874609C4.9713 0.89402 5.10026 0.926259 5.22514 0.970862L5.22513 0.970869L5.22777 0.971796C5.25515 0.981401 5.27954 0.997985 5.29854 1.01991C5.31754 1.04183 5.33049 1.06833 5.33611 1.0968L5.33754 1.10407L5.33919 1.1113L6.25236 5.11056C6.25237 5.11062 6.25239 5.11069 6.2524 5.11075C6.25851 5.13784 6.25775 5.16602 6.2502 5.19274C6.24263 5.21952 6.22847 5.24399 6.20902 5.26389L6.20891 5.26378L6.20025 5.2731C6.19441 5.27939 6.19055 5.28348 6.18816 5.286C6.18202 5.29021 6.16651 5.30037 6.13421 5.31909C6.03174 5.3785 5.83832 5.4801 5.42252 5.69645L5.00149 5.91552L5.19835 6.34738C5.90471 7.89698 7.14404 9.1414 8.69073 9.8541L9.12224 10.0529L9.34283 9.63213C9.56248 9.2131 9.66581 9.01778 9.72615 8.91424C9.74575 8.8806 9.75621 8.86478 9.76041 8.8587C9.76291 8.85632 9.76706 8.85241 9.77354 8.84639L9.77365 8.84651L9.78275 8.83762C9.80266 8.81816 9.82712 8.80401 9.8539 8.79644C9.88057 8.7889 9.9087 8.78813 9.93574 8.79421C9.93585 8.79423 9.93597 8.79426 9.93608 8.79428L13.9336 9.70706C13.9338 9.7071 13.934 9.70714 13.9342 9.70718C13.9615 9.71362 13.9868 9.72687 14.0077 9.7457C14.0286 9.76465 14.0445 9.78864 14.0536 9.81539L14.0536 9.8154L14.0555 9.82084C14.1018 9.95105 14.1368 10.085 14.16 10.2213C14.1821 10.3606 14.1933 10.5015 14.1933 10.6426C14.1821 11.3191 13.9042 11.9639 13.42 12.4367C12.935 12.9102 12.2822 13.1727 11.6044 13.1667ZM4.39998 1.16666L4.39807 1.16667C3.80695 1.16893 3.2407 1.40475 2.82271 1.82273C2.40473 2.24071 2.16891 2.80697 2.16665 3.39808H2.16664L2.16665 3.40037C2.16851 5.90157 3.16294 8.2998 4.93156 10.0684C6.70017 11.837 9.0984 12.8315 11.5996 12.8333L11.6019 12.8333C12.193 12.8311 12.7593 12.5952 13.1772 12.1773C13.5952 11.7593 13.831 11.193 13.8333 10.6019V10.6V10.38V9.98217L13.4457 9.89278L10.3523 9.17945L9.97724 9.09295L9.7977 9.43346L9.60436 9.80012L9.60435 9.80011L9.60254 9.80362C9.52569 9.95219 9.46389 10.0708 9.40315 10.1705C9.34196 10.2709 9.29735 10.3254 9.26603 10.3542C9.25732 10.3621 9.25129 10.3667 9.24765 10.3691C9.23689 10.3686 9.20786 10.3649 9.15424 10.3432L9.14477 10.3394L9.13514 10.3359C8.10032 9.96551 7.161 9.36924 6.38543 8.59043C5.60985 7.81162 5.01751 6.86982 4.65143 5.83346L4.64369 5.81156L4.63396 5.79047C4.62487 5.77077 4.61992 5.75654 4.61725 5.74707C4.62039 5.74321 4.62459 5.7384 4.63012 5.7326C4.66391 5.69717 4.72457 5.64929 4.82847 5.58592C4.92994 5.52403 5.04884 5.46131 5.19277 5.38599L5.55365 5.20883L5.90964 5.03407L5.82053 4.64764L5.10719 1.55431L5.0178 1.16666H4.61998L4.39998 1.16666ZM9.24334 10.3715C9.24332 10.3715 9.2439 10.3711 9.24505 10.3707C9.24391 10.3713 9.24336 10.3716 9.24334 10.3715ZM4.61427 5.73213C4.61431 5.73214 4.6144 5.73283 4.61441 5.73416L4.61427 5.73213Z" stroke="url(#paint0_linear)"/>
<path d="M11.6044 13.1667L11.6006 13.1667C9.01121 13.1633 6.5288 12.1332 4.6978 10.3022C2.86688 8.47125 1.83676 5.98898 1.83331 3.39968C1.8334 2.71907 2.1038 2.06636 2.58507 1.58509C3.06642 1.10374 3.71926 0.833328 4.39998 0.833343L4.40379 0.833314C4.54323 0.832251 4.68244 0.844907 4.81941 0.871097L4.82973 0.873071L4.84012 0.874609C4.9713 0.89402 5.10026 0.926259 5.22514 0.970862L5.22513 0.970869L5.22777 0.971796C5.25515 0.981401 5.27954 0.997985 5.29854 1.01991C5.31754 1.04183 5.33049 1.06833 5.33611 1.0968L5.33754 1.10407L5.33919 1.1113L6.25236 5.11056C6.25237 5.11062 6.25239 5.11069 6.2524 5.11075C6.25851 5.13784 6.25775 5.16602 6.2502 5.19274C6.24263 5.21952 6.22847 5.24399 6.20902 5.26389L6.20891 5.26378L6.20025 5.2731C6.19441 5.27939 6.19055 5.28348 6.18816 5.286C6.18202 5.29021 6.16651 5.30037 6.13421 5.31909C6.03174 5.3785 5.83832 5.4801 5.42252 5.69645L5.00149 5.91552L5.19835 6.34738C5.90471 7.89698 7.14404 9.1414 8.69073 9.8541L9.12224 10.0529L9.34283 9.63213C9.56248 9.2131 9.66581 9.01778 9.72615 8.91424C9.74575 8.8806 9.75621 8.86478 9.76041 8.8587C9.76291 8.85632 9.76706 8.85241 9.77354 8.84639L9.77365 8.84651L9.78275 8.83762C9.80266 8.81816 9.82712 8.80401 9.8539 8.79644C9.88057 8.7889 9.9087 8.78813 9.93574 8.79421C9.93585 8.79423 9.93597 8.79426 9.93608 8.79428L13.9336 9.70706C13.9338 9.7071 13.934 9.70714 13.9342 9.70718C13.9615 9.71362 13.9868 9.72687 14.0077 9.7457C14.0286 9.76465 14.0445 9.78864 14.0536 9.81539L14.0536 9.8154L14.0555 9.82084C14.1018 9.95105 14.1368 10.085 14.16 10.2213C14.1821 10.3606 14.1933 10.5015 14.1933 10.6426C14.1821 11.3191 13.9042 11.9639 13.42 12.4367C12.935 12.9102 12.2822 13.1727 11.6044 13.1667ZM4.39998 1.16666L4.39807 1.16667C3.80695 1.16893 3.2407 1.40475 2.82271 1.82273C2.40473 2.24071 2.16891 2.80697 2.16665 3.39808H2.16664L2.16665 3.40037C2.16851 5.90157 3.16294 8.2998 4.93156 10.0684C6.70017 11.837 9.0984 12.8315 11.5996 12.8333L11.6019 12.8333C12.193 12.8311 12.7593 12.5952 13.1772 12.1773C13.5952 11.7593 13.831 11.193 13.8333 10.6019V10.6V10.38V9.98217L13.4457 9.89278L10.3523 9.17945L9.97724 9.09295L9.7977 9.43346L9.60436 9.80012L9.60435 9.80011L9.60254 9.80362C9.52569 9.95219 9.46389 10.0708 9.40315 10.1705C9.34196 10.2709 9.29735 10.3254 9.26603 10.3542C9.25732 10.3621 9.25129 10.3667 9.24765 10.3691C9.23689 10.3686 9.20786 10.3649 9.15424 10.3432L9.14477 10.3394L9.13514 10.3359C8.10032 9.96551 7.161 9.36924 6.38543 8.59043C5.60985 7.81162 5.01751 6.86982 4.65143 5.83346L4.64369 5.81156L4.63396 5.79047C4.62487 5.77077 4.61992 5.75654 4.61725 5.74707C4.62039 5.74321 4.62459 5.7384 4.63012 5.7326C4.66391 5.69717 4.72457 5.64929 4.82847 5.58592C4.92994 5.52403 5.04884 5.46131 5.19277 5.38599L5.55365 5.20883L5.90964 5.03407L5.82053 4.64764L5.10719 1.55431L5.0178 1.16666H4.61998L4.39998 1.16666ZM9.24334 10.3715C9.24332 10.3715 9.2439 10.3711 9.24505 10.3707C9.24391 10.3713 9.24336 10.3716 9.24334 10.3715ZM4.61427 5.73213C4.61431 5.73214 4.6144 5.73283 4.61441 5.73416L4.61427 5.73213Z" stroke="url(#paint1_linear)"/>
<path d="M11.6044 13.1667L11.6006 13.1667C9.01121 13.1633 6.5288 12.1332 4.6978 10.3022C2.86688 8.47125 1.83676 5.98898 1.83331 3.39968C1.8334 2.71907 2.1038 2.06636 2.58507 1.58509C3.06642 1.10374 3.71926 0.833328 4.39998 0.833343L4.40379 0.833314C4.54323 0.832251 4.68244 0.844907 4.81941 0.871097L4.82973 0.873071L4.84012 0.874609C4.9713 0.89402 5.10026 0.926259 5.22514 0.970862L5.22513 0.970869L5.22777 0.971796C5.25515 0.981401 5.27954 0.997985 5.29854 1.01991C5.31754 1.04183 5.33049 1.06833 5.33611 1.0968L5.33754 1.10407L5.33919 1.1113L6.25236 5.11056C6.25237 5.11062 6.25239 5.11069 6.2524 5.11075C6.25851 5.13784 6.25775 5.16602 6.2502 5.19274C6.24263 5.21952 6.22847 5.24399 6.20902 5.26389L6.20891 5.26378L6.20025 5.2731C6.19441 5.27939 6.19055 5.28348 6.18816 5.286C6.18202 5.29021 6.16651 5.30037 6.13421 5.31909C6.03174 5.3785 5.83832 5.4801 5.42252 5.69645L5.00149 5.91552L5.19835 6.34738C5.90471 7.89698 7.14404 9.1414 8.69073 9.8541L9.12224 10.0529L9.34283 9.63213C9.56248 9.2131 9.66581 9.01778 9.72615 8.91424C9.74575 8.8806 9.75621 8.86478 9.76041 8.8587C9.76291 8.85632 9.76706 8.85241 9.77354 8.84639L9.77365 8.84651L9.78275 8.83762C9.80266 8.81816 9.82712 8.80401 9.8539 8.79644C9.88057 8.7889 9.9087 8.78813 9.93574 8.79421C9.93585 8.79423 9.93597 8.79426 9.93608 8.79428L13.9336 9.70706C13.9338 9.7071 13.934 9.70714 13.9342 9.70718C13.9615 9.71362 13.9868 9.72687 14.0077 9.7457C14.0286 9.76465 14.0445 9.78864 14.0536 9.81539L14.0536 9.8154L14.0555 9.82084C14.1018 9.95105 14.1368 10.085 14.16 10.2213C14.1821 10.3606 14.1933 10.5015 14.1933 10.6426C14.1821 11.3191 13.9042 11.9639 13.42 12.4367C12.935 12.9102 12.2822 13.1727 11.6044 13.1667ZM4.39998 1.16666L4.39807 1.16667C3.80695 1.16893 3.2407 1.40475 2.82271 1.82273C2.40473 2.24071 2.16891 2.80697 2.16665 3.39808H2.16664L2.16665 3.40037C2.16851 5.90157 3.16294 8.2998 4.93156 10.0684C6.70017 11.837 9.0984 12.8315 11.5996 12.8333L11.6019 12.8333C12.193 12.8311 12.7593 12.5952 13.1772 12.1773C13.5952 11.7593 13.831 11.193 13.8333 10.6019V10.6V10.38V9.98217L13.4457 9.89278L10.3523 9.17945L9.97724 9.09295L9.7977 9.43346L9.60436 9.80012L9.60435 9.80011L9.60254 9.80362C9.52569 9.95219 9.46389 10.0708 9.40315 10.1705C9.34196 10.2709 9.29735 10.3254 9.26603 10.3542C9.25732 10.3621 9.25129 10.3667 9.24765 10.3691C9.23689 10.3686 9.20786 10.3649 9.15424 10.3432L9.14477 10.3394L9.13514 10.3359C8.10032 9.96551 7.161 9.36924 6.38543 8.59043C5.60985 7.81162 5.01751 6.86982 4.65143 5.83346L4.64369 5.81156L4.63396 5.79047C4.62487 5.77077 4.61992 5.75654 4.61725 5.74707C4.62039 5.74321 4.62459 5.7384 4.63012 5.7326C4.66391 5.69717 4.72457 5.64929 4.82847 5.58592C4.92994 5.52403 5.04884 5.46131 5.19277 5.38599L5.55365 5.20883L5.90964 5.03407L5.82053 4.64764L5.10719 1.55431L5.0178 1.16666H4.61998L4.39998 1.16666ZM9.24334 10.3715C9.24332 10.3715 9.2439 10.3711 9.24505 10.3707C9.24391 10.3713 9.24336 10.3716 9.24334 10.3715ZM4.61427 5.73213C4.61431 5.73214 4.6144 5.73283 4.61441 5.73416L4.61427 5.73213Z" stroke="url(#paint2_linear)"/>
<path d="M11.6044 13.1667L11.6006 13.1667C9.01121 13.1633 6.5288 12.1332 4.6978 10.3022C2.86688 8.47125 1.83676 5.98898 1.83331 3.39968C1.8334 2.71907 2.1038 2.06636 2.58507 1.58509C3.06642 1.10374 3.71926 0.833328 4.39998 0.833343L4.40379 0.833314C4.54323 0.832251 4.68244 0.844907 4.81941 0.871097L4.82973 0.873071L4.84012 0.874609C4.9713 0.89402 5.10026 0.926259 5.22514 0.970862L5.22513 0.970869L5.22777 0.971796C5.25515 0.981401 5.27954 0.997985 5.29854 1.01991C5.31754 1.04183 5.33049 1.06833 5.33611 1.0968L5.33754 1.10407L5.33919 1.1113L6.25236 5.11056C6.25237 5.11062 6.25239 5.11069 6.2524 5.11075C6.25851 5.13784 6.25775 5.16602 6.2502 5.19274C6.24263 5.21952 6.22847 5.24399 6.20902 5.26389L6.20891 5.26378L6.20025 5.2731C6.19441 5.27939 6.19055 5.28348 6.18816 5.286C6.18202 5.29021 6.16651 5.30037 6.13421 5.31909C6.03174 5.3785 5.83832 5.4801 5.42252 5.69645L5.00149 5.91552L5.19835 6.34738C5.90471 7.89698 7.14404 9.1414 8.69073 9.8541L9.12224 10.0529L9.34283 9.63213C9.56248 9.2131 9.66581 9.01778 9.72615 8.91424C9.74575 8.8806 9.75621 8.86478 9.76041 8.8587C9.76291 8.85632 9.76706 8.85241 9.77354 8.84639L9.77365 8.84651L9.78275 8.83762C9.80266 8.81816 9.82712 8.80401 9.8539 8.79644C9.88057 8.7889 9.9087 8.78813 9.93574 8.79421C9.93585 8.79423 9.93597 8.79426 9.93608 8.79428L13.9336 9.70706C13.9338 9.7071 13.934 9.70714 13.9342 9.70718C13.9615 9.71362 13.9868 9.72687 14.0077 9.7457C14.0286 9.76465 14.0445 9.78864 14.0536 9.81539L14.0536 9.8154L14.0555 9.82084C14.1018 9.95105 14.1368 10.085 14.16 10.2213C14.1821 10.3606 14.1933 10.5015 14.1933 10.6426C14.1821 11.3191 13.9042 11.9639 13.42 12.4367C12.935 12.9102 12.2822 13.1727 11.6044 13.1667ZM4.39998 1.16666L4.39807 1.16667C3.80695 1.16893 3.2407 1.40475 2.82271 1.82273C2.40473 2.24071 2.16891 2.80697 2.16665 3.39808H2.16664L2.16665 3.40037C2.16851 5.90157 3.16294 8.2998 4.93156 10.0684C6.70017 11.837 9.0984 12.8315 11.5996 12.8333L11.6019 12.8333C12.193 12.8311 12.7593 12.5952 13.1772 12.1773C13.5952 11.7593 13.831 11.193 13.8333 10.6019V10.6V10.38V9.98217L13.4457 9.89278L10.3523 9.17945L9.97724 9.09295L9.7977 9.43346L9.60436 9.80012L9.60435 9.80011L9.60254 9.80362C9.52569 9.95219 9.46389 10.0708 9.40315 10.1705C9.34196 10.2709 9.29735 10.3254 9.26603 10.3542C9.25732 10.3621 9.25129 10.3667 9.24765 10.3691C9.23689 10.3686 9.20786 10.3649 9.15424 10.3432L9.14477 10.3394L9.13514 10.3359C8.10032 9.96551 7.161 9.36924 6.38543 8.59043C5.60985 7.81162 5.01751 6.86982 4.65143 5.83346L4.64369 5.81156L4.63396 5.79047C4.62487 5.77077 4.61992 5.75654 4.61725 5.74707C4.62039 5.74321 4.62459 5.7384 4.63012 5.7326C4.66391 5.69717 4.72457 5.64929 4.82847 5.58592C4.92994 5.52403 5.04884 5.46131 5.19277 5.38599L5.55365 5.20883L5.90964 5.03407L5.82053 4.64764L5.10719 1.55431L5.0178 1.16666H4.61998L4.39998 1.16666ZM9.24334 10.3715C9.24332 10.3715 9.2439 10.3711 9.24505 10.3707C9.24391 10.3713 9.24336 10.3716 9.24334 10.3715ZM4.61427 5.73213C4.61431 5.73214 4.6144 5.73283 4.61441 5.73416L4.61427 5.73213Z" stroke="url(#paint3_linear)"/>
</g>
<defs>
<filter id="filter0_ddd" x="-2.66669" y="0.333252" width="21.36" height="21.3335" filterUnits="userSpaceOnUse" color-interpolation-filters="sRGB">
<feFlood flood-opacity="0" result="BackgroundImageFix"/>
<feColorMatrix in="SourceAlpha" type="matrix" values="0 0 0 0 0 0 0 0 0 0 0 0 0 0 0 0 0 0 127 0"/>
<feOffset dy="4"/>
<feGaussianBlur stdDeviation="2"/>
<feColorMatrix type="matrix" values="0 0 0 0 0 0 0 0 0 0 0 0 0 0 0 0 0 0 0.25 0"/>
<feBlend mode="normal" in2="BackgroundImageFix" result="effect1_dropShadow"/>
<feColorMatrix in="SourceAlpha" type="matrix" values="0 0 0 0 0 0 0 0 0 0 0 0 0 0 0 0 0 0 127 0"/>
<feOffset dy="4"/>
<feGaussianBlur stdDeviation="2"/>
<feColorMatrix type="matrix" values="0 0 0 0 0 0 0 0 0 0 0 0 0 0 0 0 0 0 0.25 0"/>
<feBlend mode="normal" in2="effect1_dropShadow" result="effect2_dropShadow"/>
<feColorMatrix in="SourceAlpha" type="matrix" values="0 0 0 0 0 0 0 0 0 0 0 0 0 0 0 0 0 0 127 0"/>
<feOffset dy="4"/>
<feGaussianBlur stdDeviation="2"/>
<feColorMatrix type="matrix" values="0 0 0 0 0 0 0 0 0 0 0 0 0 0 0 0 0 0 0.25 0"/>
<feBlend mode="normal" in2="effect2_dropShadow" result="effect3_dropShadow"/>
<feBlend mode="normal" in="SourceGraphic" in2="effect3_dropShadow" result="shape"/>
</filter>
<linearGradient id="paint0_linear" x1="8.01331" y1="0.333252" x2="8.01331" y2="13.6668" gradientUnits="userSpaceOnUse">
<stop stop-color="white"/>
<stop offset="1" stop-color="white" stop-opacity="0"/>
</linearGradient>
<linearGradient id="paint1_linear" x1="8.01331" y1="0.333252" x2="8.01331" y2="13.6668" gradientUnits="userSpaceOnUse">
<stop stop-color="white"/>
<stop offset="1" stop-color="white" stop-opacity="0"/>
</linearGradient>
<linearGradient id="paint2_linear" x1="8.01331" y1="0.333252" x2="8.01331" y2="13.6668" gradientUnits="userSpaceOnUse">
<stop stop-color="white"/>
<stop offset="1" stop-color="white" stop-opacity="0"/>
</linearGradient>
<linearGradient id="paint3_linear" x1="8.01331" y1="0.333252" x2="8.01331" y2="13.6668" gradientUnits="userSpaceOnUse">
<stop stop-color="white"/>
<stop offset="1" stop-color="white" stop-opacity="0"/>
</linearGradient>
</defs>
</svg>
