<svg width="26" height="28" viewBox="0 0 26 28" fill="none" xmlns="http://www.w3.org/2000/svg">
<g filter="url(#filter0_d)">
<path d="M21.25 17.4167L16.5255 12.6922C17.3989 11.3648 17.7487 9.76053 17.5072 8.18999C17.2657 6.61945 16.4501 5.19437 15.2182 4.19068C13.9863 3.18698 12.4259 2.67606 10.8389 2.75684C9.25197 2.83762 7.75144 3.50434 6.62785 4.62794C5.50425 5.75153 4.83752 7.25206 4.75675 8.83901C4.67597 10.426 5.18689 11.9864 6.19058 13.2183C7.19428 14.4502 8.61936 15.2658 10.1899 15.5073C11.7604 15.7488 13.3647 15.399 14.6922 14.5256L19.4167 19.2501L21.25 17.4167ZM6.58332 9.16675C6.58332 6.6395 8.63941 4.58341 11.1667 4.58341C13.6939 4.58341 15.75 6.6395 15.75 9.16675C15.75 11.694 13.6939 13.7501 11.1667 13.7501C8.63941 13.7501 6.58332 11.694 6.58332 9.16675Z" fill="white"/>
</g>
<defs>
<filter id="filter0_d" x="-2" y="0" width="30" height="30" filterUnits="userSpaceOnUse" color-interpolation-filters="sRGB">
<feFlood flood-opacity="0" result="BackgroundImageFix"/>
<feColorMatrix in="SourceAlpha" type="matrix" values="0 0 0 0 0 0 0 0 0 0 0 0 0 0 0 0 0 0 127 0"/>
<feOffset dy="4"/>
<feGaussianBlur stdDeviation="2"/>
<feColorMatrix type="matrix" values="0 0 0 0 0 0 0 0 0 0 0 0 0 0 0 0 0 0 0.25 0"/>
<feBlend mode="normal" in2="BackgroundImageFix" result="effect1_dropShadow"/>
<feBlend mode="normal" in="SourceGraphic" in2="effect1_dropShadow" result="shape"/>
</filter>
</defs>
</svg>
